<svg id="Layer_1" enable-background="new 0 0 512 512" height="512" viewBox="0 0 512 512" width="512" xmlns="http://www.w3.org/2000/svg"><g><path d="m10.565 93.596c25.453 8.594 45.728 28.854 54.342 54.296 1.868 6.155 7.589 10.634 14.355 10.634 6.739 0 12.44-4.446 14.333-10.565 8.594-25.452 28.853-45.726 54.295-54.342 6.156-1.868 10.635-7.589 10.635-14.355 0-6.739-4.446-12.44-10.565-14.333-25.452-8.594-45.726-28.853-54.342-54.295-1.868-6.157-7.589-10.636-14.355-10.636-6.739 0-12.44 4.446-14.332 10.565-8.593 25.451-28.853 45.726-54.296 54.342-6.156 1.868-10.635 7.589-10.635 14.356 0 6.739 4.447 12.44 10.565 14.333z"/><path d="m501.435 418.404c-25.453-8.594-45.728-28.854-54.342-54.296-1.868-6.155-7.589-10.634-14.355-10.634-6.739 0-12.44 4.446-14.333 10.565-8.594 25.452-28.853 45.726-54.295 54.342-6.156 1.868-10.635 7.589-10.635 14.355 0 6.739 4.446 12.44 10.565 14.333 25.452 8.594 45.726 28.853 54.342 54.295 1.868 6.156 7.589 10.635 14.355 10.635 6.739 0 12.44-4.446 14.332-10.565 8.593-25.451 28.853-45.726 54.296-54.342 6.156-1.868 10.635-7.589 10.635-14.355 0-6.739-4.447-12.44-10.565-14.333z"/><path d="m308.947 338.172s-10.093-3.368-24.112-8.036c-48.357-16.119-86.852-54.613-102.97-102.967-4.669-14.023-8.037-24.116-8.037-24.116-2.042-6.123-7.774-10.253-14.229-10.253s-12.186 4.131-14.229 10.254c0 0-3.366 10.093-8.034 24.111-16.119 48.357-54.613 86.852-102.968 102.97-14.022 4.669-24.115 8.037-24.115 8.037-6.123 2.042-10.253 7.774-10.253 14.229s4.131 12.186 10.254 14.229c0 0 10.093 3.366 24.11 8.034 48.358 16.119 86.853 54.613 102.971 102.967 4.669 14.022 8.035 24.115 8.035 24.115 2.043 6.123 7.773 10.254 14.229 10.254h.001c6.455 0 12.187-4.13 14.229-10.253 0 0 3.368-10.093 8.036-24.112 16.119-48.357 54.613-86.852 102.967-102.97 14.022-4.669 24.115-8.035 24.115-8.035 6.123-2.043 10.254-7.773 10.254-14.229s-4.131-12.187-10.254-14.229z"/><path d="m384.537 254.925c6.744 0 12.448-4.452 14.337-10.578 16.138-48.079 54.407-86.363 102.477-102.523 6.163-1.863 10.649-7.588 10.649-14.36 0-6.744-4.453-12.448-10.578-14.337-48.079-16.138-86.364-54.407-102.524-102.477-1.864-6.164-7.588-10.65-14.361-10.65-6.744 0-12.448 4.453-14.337 10.578-16.138 48.079-54.407 86.364-102.477 102.524-6.163 1.863-10.649 7.588-10.649 14.36 0 6.744 4.453 12.448 10.578 14.337 48.076 16.137 86.36 54.403 102.521 102.468 1.862 6.169 7.588 10.658 14.364 10.658z"/></g></svg>