<svg id="Layer_1" enable-background="new 0 0 66 66" height="512" viewBox="0 0 66 66" width="512" xmlns="http://www.w3.org/2000/svg"><g><path d="m4.37 46.69c0 2.71 2.21 4.92 4.92 4.92 1.41 0 2.74-.62 3.66-1.65l15.31 8.83c-.12.42-.18.85-.18 1.29 0 2.72 2.21 4.92 4.92 4.92s4.92-2.2 4.92-4.91c0-.44-.07-.87-.18-1.3l15.3-8.83c.92 1.03 2.25 1.65 3.66 1.65 2.71 0 4.92-2.21 4.92-4.92 0-2.37-1.69-4.35-3.92-4.82v-17.74c2.24-.46 3.92-2.45 3.92-4.82 0-2.71-2.21-4.92-4.92-4.92-1.42 0-2.74.62-3.66 1.66l-15.3-8.85c.11-.41.18-.84.18-1.29 0-2.71-2.21-4.91-4.92-4.91s-4.92 2.2-4.92 4.91c0 .45.07.88.18 1.3l-15.3 8.84c-.92-1.04-2.24-1.66-3.66-1.66-2.71 0-4.92 2.21-4.92 4.92 0 2.37 1.69 4.36 3.92 4.82v17.74c-2.24.47-3.93 2.45-3.93 4.82zm2 0c0-1.61 1.31-2.92 2.92-2.92 1.65 0 2.92 1.36 2.92 2.92 0 1.62-1.33 2.92-2.92 2.92-1.61 0-2.92-1.31-2.92-2.92zm3.93-4.82v-17.74c1-.21 1.93-.77 2.57-1.46l4.95 3.04c-1.08 2.25-1.66 4.73-1.66 7.28 0 2.56.58 5.04 1.66 7.29l-4.94 3.03c-.65-.68-1.6-1.24-2.58-1.44zm12.56-19.69c1.06.8 2.21 1.47 3.41 1.99-.65 2.29-1.04 4.95-1.12 7.82h-6.94c.25-3.74 1.9-7.23 4.65-9.81zm18.68-1.32c.01.01.02.01.02.02-.77.55-1.6 1-2.46 1.39-.52-1.36-1.14-2.52-1.83-3.47 1.49.45 2.95 1.13 4.27 2.06zm6.26 11.14h-6.95c-.08-2.88-.47-5.53-1.12-7.82 1.21-.53 2.35-1.19 3.41-1.99 2.75 2.57 4.4 6.07 4.66 9.81zm5.31-9.34c.66.72 1.59 1.27 2.59 1.47v17.74c-1.03.21-2.05.8-2.78 1.68l-5.11-2.58c1.31-2.43 2.03-5.15 2.03-7.98 0-2.62-.62-5.15-1.75-7.44zm-15.84 24.55c.7-.95 1.32-2.12 1.84-3.48.86.39 1.68.85 2.46 1.4-.01.01-.02.01-.03.02-1.24.87-2.69 1.59-4.27 2.06zm-12.81-2.06c-.01-.01-.02-.01-.02-.02.77-.55 1.6-1.01 2.46-1.4.52 1.36 1.14 2.53 1.84 3.48-.19-.06-.37-.11-.55-.17-1.35-.47-2.65-1.13-3.73-1.89zm-6.25-11.15h6.94c.08 2.88.47 5.53 1.12 7.82-1.21.53-2.35 1.2-3.41 2-2.75-2.57-4.4-6.07-4.65-9.82zm6.25-13.14c1.25-.87 2.67-1.58 4.26-2.06-.69.95-1.31 2.11-1.83 3.47-.86-.39-1.68-.84-2.46-1.39.01-.01.02-.02.03-.02zm7.54 26.73c-1.18-.59-2.34-2.2-3.24-4.56 1.05-.31 2.14-.52 3.24-.59zm2 0v-5.15c1.1.07 2.19.28 3.24.59-.9 2.36-2.06 3.97-3.24 4.56zm0-7.15v-6.44h4.85c-.07 2.69-.44 5.1-.99 7.13-1.26-.38-2.55-.61-3.86-.69zm0-8.44v-6.45c1.31-.08 2.6-.31 3.85-.69.56 2.03.92 4.44 1 7.14zm0-8.45v-5.14c1.18.59 2.34 2.2 3.24 4.55-1.05.32-2.14.52-3.24.59zm-2-5.14v5.14c-1.1-.07-2.19-.27-3.24-.59.9-2.35 2.06-3.96 3.24-4.55zm0 7.14v6.45h-4.85c.07-2.69.44-5.11 1-7.14 1.25.38 2.54.61 3.85.69zm0 8.45v6.45c-1.31.08-2.6.31-3.85.69-.56-2.03-.92-4.44-.99-7.13h4.84zm11.14 9.82c-1.06-.8-2.2-1.47-3.41-2 .65-2.29 1.04-4.94 1.12-7.82h6.95c-.26 3.75-1.91 7.24-4.66 9.82zm-28.92 2.87c0-.58-.11-1.14-.3-1.67l4.88-2.99c2.86 4.49 7.67 7.44 13.21 7.77v5.47c-1.16.24-2.16.89-2.83 1.74l-15.2-8.77c.12-.4.24-1.03.24-1.55zm18.78 16.31c-1.61 0-2.92-1.31-2.92-2.91s1.32-2.92 2.92-2.92c1.68 0 2.92 1.39 2.92 2.92.01 1.6-1.3 2.91-2.92 2.91zm3.84-5.99c-.68-.86-1.69-1.5-2.83-1.73v-5.47c5.22-.31 9.78-2.89 12.76-7.12l5.22 2.64c-.13.44-.2.9-.2 1.37 0 .53.13 1.19.25 1.54zm22.79-10.32c0 1.61-1.31 2.92-2.92 2.92-1.58 0-2.92-1.29-2.92-2.92 0-1.58 1.29-2.92 2.92-2.92 1.61 0 2.92 1.31 2.92 2.92zm0-27.38c0 1.61-1.31 2.92-2.92 2.92-1.66 0-2.91-1.38-2.91-2.92s1.26-2.92 2.91-2.92c1.61 0 2.92 1.31 2.92 2.92zm-7.84 0c0 .56.11 1.11.29 1.63l-4.98 2.89c-2.98-4.57-7.76-7.31-13.1-7.63v-5.48c1.1-.23 2.12-.85 2.83-1.74l15.2 8.79c-.12.4-.24 1.02-.24 1.54zm-18.79-16.31c1.61 0 2.92 1.31 2.92 2.91 0 1.61-1.31 2.92-2.92 2.92-1.64 0-2.92-1.36-2.92-2.92-.01-1.6 1.3-2.91 2.92-2.91zm-3.83 6c.67.83 1.68 1.49 2.84 1.73v5.47c-5.67.34-10.42 3.38-13.21 7.77l-4.87-2.99c.36-.99.39-2.16.04-3.2zm-22.8 10.31c0-1.61 1.31-2.92 2.92-2.92 1.64 0 2.92 1.38 2.92 2.92 0 1.61-1.31 2.92-2.92 2.92s-2.92-1.31-2.92-2.92z"/></g></svg>