<svg id="Layer_1" enable-background="new 0 0 66 66" height="512" viewBox="0 0 66 66" width="512" xmlns="http://www.w3.org/2000/svg"><g><path d="m46.92 32h-6.46c-.07-2.68-.44-5.16-1.05-7.3 1.11-.49 2.17-1.11 3.15-1.84 2.57 2.41 4.11 5.66 4.36 9.14zm-12.92-12.7c1.07.58 2.12 2.05 2.93 4.18-.95.28-1.93.46-2.93.53zm3.19.39c1.35.42 2.64 1.04 3.81 1.86-.69.48-1.43.9-2.19 1.25-.47-1.21-1.01-2.25-1.62-3.11zm-5.19-.39v4.71c-1-.07-1.98-.25-2.93-.53.81-2.13 1.86-3.6 2.93-4.18zm-4.8 3.49c-.76-.35-1.5-.76-2.2-1.25 1.17-.81 2.46-1.43 3.81-1.86-.61.87-1.15 1.91-1.61 3.11zm4.8 3.23v5.98h-4.47c.07-2.49.41-4.73.92-6.62 1.15.35 2.34.56 3.55.64zm0 7.98v5.98c-1.21.08-2.4.29-3.55.63-.51-1.89-.85-4.12-.92-6.62h4.47zm0 7.99v4.72c-1.07-.58-2.12-2.05-2.94-4.18.96-.29 1.94-.47 2.94-.54zm-3.18 4.33c-1.35-.43-2.64-1.04-3.82-1.86.7-.49 1.43-.9 2.2-1.25.46 1.2 1.01 2.25 1.62 3.11zm5.18.38v-4.72c1 .07 1.98.25 2.94.53-.82 2.14-1.87 3.62-2.94 4.19zm4.8-3.49c.77.35 1.5.77 2.2 1.25-1.17.82-2.46 1.44-3.81 1.86.6-.86 1.15-1.91 1.61-3.11zm-4.8-3.22v-5.99h4.47c-.07 2.49-.41 4.73-.92 6.62-1.15-.34-2.34-.56-3.55-.63zm0-7.99v-5.99c1.21-.08 2.4-.29 3.55-.63.51 1.89.85 4.13.92 6.62zm-10.58-9.15c.98.74 2.04 1.35 3.16 1.84-.6 2.14-.97 4.62-1.05 7.31h-6.45c.25-3.49 1.79-6.74 4.34-9.15zm-4.34 11.15h6.45c.07 2.68.44 5.16 1.05 7.3-1.12.49-2.17 1.11-3.16 1.85-2.55-2.4-4.09-5.65-4.34-9.15zm23.5 9.16c-.98-.74-2.04-1.36-3.15-1.85.6-2.14.97-4.62 1.05-7.3h6.46c-.27 3.48-1.81 6.73-4.36 9.15z"/><path d="m57.7 41.88v-17.75c2.24-.46 3.93-2.45 3.93-4.82 0-2.71-2.21-4.92-4.93-4.92-1.41 0-2.74.63-3.65 1.66l-15.31-8.85c.11-.41.18-.84.18-1.28 0-2.71-2.21-4.92-4.92-4.92-2.72 0-4.93 2.21-4.93 4.92 0 .44.07.88.19 1.3l-15.31 8.83c-.92-1.04-2.24-1.66-3.65-1.66-2.72 0-4.93 2.21-4.93 4.92 0 2.37 1.69 4.36 3.93 4.82v17.75c-2.24.46-3.93 2.44-3.93 4.81 0 2.72 2.21 4.93 4.93 4.93 1.41 0 2.74-.62 3.66-1.66l15.31 8.84c-.12.42-.19.85-.19 1.29 0 2.71 2.21 4.91 4.93 4.91 2.71 0 4.92-2.2 4.92-4.91 0-.44-.07-.87-.18-1.29l15.29-8.84c.93 1.04 2.25 1.66 3.66 1.66 2.72 0 4.93-2.21 4.93-4.93 0-2.37-1.69-4.35-3.93-4.81zm-2 .01c-1.08.22-2.05.8-2.76 1.65l-5.82-3.12c-.31.59-.66 1.16-1.04 1.71l5.91 3.17c-.13.45-.21.92-.21 1.39 0 .53.1 1.05.26 1.54l-15.21 8.78c-.71-.89-1.7-1.5-2.82-1.73v-6.34c-.34.02-.67.04-1.01.04-.33 0-.66-.02-.99-.04v6.34c-1.13.23-2.12.84-2.83 1.74l-15.22-8.79c.16-.49.26-1.01.26-1.54 0-.57-.11-1.13-.3-1.66l5.62-3.45c-.36-.57-.69-1.15-.98-1.75l-5.69 3.5c-.69-.74-1.58-1.24-2.57-1.45v-17.75c1-.21 1.89-.73 2.57-1.46l5.69 3.5c.28-.6.62-1.18.98-1.75l-5.63-3.46c.19-.52.31-1.07.31-1.66 0-.53-.1-1.04-.26-1.53l15.22-8.79c.71.89 1.71 1.5 2.83 1.73v6.35c.32-.02.63-.04.95-.04h.08c.32 0 .65.02.97.05v-6.36c1.11-.24 2.11-.85 2.82-1.73l15.22 8.79c-.16.49-.26 1.01-.26 1.53 0 .57.11 1.13.3 1.65l-5.64 3.46c.36.56.69 1.14.98 1.74l5.7-3.49c.69.74 1.59 1.25 2.57 1.45z"/></g></svg>