<svg id="Layer_1" height="512" viewBox="0 0 512 512" width="512" xmlns="http://www.w3.org/2000/svg" data-name="Layer 1"><path d="m439.136 5.941h-366.272a72.947 72.947 0 0 0 -72.864 72.864v260.906a72.947 72.947 0 0 0 72.864 72.864h34.736v59.7a33.643 33.643 0 0 0 50.573 29.2l153.98-88.9h126.983a72.947 72.947 0 0 0 72.864-72.864v-260.906a72.947 72.947 0 0 0 -72.864-72.864zm40.864 333.77a40.91 40.91 0 0 1 -40.864 40.864h-131.269a16 16 0 0 0 -8 2.144l-157.693 91.045a1.715 1.715 0 0 1 -2.573-1.486v-75.7a16 16 0 0 0 -16-16h-50.737a40.91 40.91 0 0 1 -40.864-40.867v-260.906a40.91 40.91 0 0 1 40.864-40.864h366.272a40.91 40.91 0 0 1 40.864 40.864zm-73-188.917a16 16 0 0 1 -16 16h-270a16 16 0 1 1 0-32h270a16 16 0 0 1 16 16zm0 116.928a16 16 0 0 1 -16 16h-270a16 16 0 0 1 0-32h270a16 16 0 0 1 16 16z"/></svg>