<svg id="regular" enable-background="new 0 0 24 24" viewBox="0 0 24 24" xmlns="http://www.w3.org/2000/svg"><g><path d="m9.25 8h-7.5c-.965 0-1.75-.785-1.75-1.75v-4.5c0-.965.785-1.75 1.75-1.75h7.5c.965 0 1.75.785 1.75 1.75v4.5c0 .965-.785 1.75-1.75 1.75zm-7.5-6.5c-.138 0-.25.112-.25.25v4.5c0 .138.112.25.25.25h7.5c.138 0 .25-.112.25-.25v-4.5c0-.138-.112-.25-.25-.25z"/></g><g><path d="m9.25 24h-7.5c-.965 0-1.75-.785-1.75-1.75v-10.5c0-.965.785-1.75 1.75-1.75h7.5c.965 0 1.75.785 1.75 1.75v10.5c0 .965-.785 1.75-1.75 1.75zm-7.5-12.5c-.138 0-.25.112-.25.25v10.5c0 .138.112.25.25.25h7.5c.138 0 .25-.112.25-.25v-10.5c0-.138-.112-.25-.25-.25z"/></g><g><path d="m22.25 24h-7.5c-.965 0-1.75-.785-1.75-1.75v-4.5c0-.965.785-1.75 1.75-1.75h7.5c.965 0 1.75.785 1.75 1.75v4.5c0 .965-.785 1.75-1.75 1.75zm-7.5-6.5c-.138 0-.25.112-.25.25v4.5c0 .138.112.25.25.25h7.5c.138 0 .25-.112.25-.25v-4.5c0-.138-.112-.25-.25-.25z"/></g><g><path d="m22.25 14h-7.5c-.965 0-1.75-.785-1.75-1.75v-10.5c0-.965.785-1.75 1.75-1.75h7.5c.965 0 1.75.785 1.75 1.75v10.5c0 .965-.785 1.75-1.75 1.75zm-7.5-12.5c-.138 0-.25.112-.25.25v10.5c0 .138.112.25.25.25h7.5c.138 0 .25-.112.25-.25v-10.5c0-.138-.112-.25-.25-.25z"/></g></svg>