<svg id="Layer_1" height="300" viewBox="0 0 32 32" width="300" xmlns="http://www.w3.org/2000/svg" data-name="Layer 1" version="1.1" xmlns:xlink="http://www.w3.org/1999/xlink" xmlns:svgjs="http://svgjs.dev/svgjs"><g width="100%" height="100%" transform="matrix(1,0,0,1,0,0)"><g fill="rgb(0,0,0)"><path d="m28.222 27.5h-24.444a2.782 2.782 0 0 1 -2.778-2.779v-17.442a2.782 2.782 0 0 1 2.778-2.779h24.444a2.782 2.782 0 0 1 2.778 2.779v17.442a2.782 2.782 0 0 1 -2.778 2.779zm-24.444-21a.78.78 0 0 0 -.778.779v17.442a.78.78 0 0 0 .778.779h24.444a.78.78 0 0 0 .778-.779v-17.442a.78.78 0 0 0 -.778-.779z" fill="#1a1a1a" fill-opacity="1" data-original-color="#000000ff" stroke="none" stroke-opacity="1"/><path d="m16 18.5a1 1 0 0 1 -.573-.181l-10-7a1 1 0 0 1 1.146-1.638l9.427 6.598 9.427-6.6a1 1 0 0 1 1.146 1.638l-10 7a1 1 0 0 1 -.573.183z" fill="#1a1a1a" fill-opacity="1" data-original-color="#000000ff" stroke="none" stroke-opacity="1"/></g></g></svg>