<svg id="Layer_1" enable-background="new 0 0 48 48" height="512" viewBox="0 0 48 48" width="512" xmlns="http://www.w3.org/2000/svg"><path d="m23.9 35.4c-6 0-11.8-3.2-17.2-9.4-1-1.1-1-2.9 0-4.1 2.4-2.8 8.9-9.3 17.4-9.3 0 0 8.7-.8 17.3 9.4 1 1.2 1 2.9 0 4.1-2.2 2.6-9.1 9.4-17.5 9.3zm-15.8-10.7c5 5.8 10.3 8.7 15.7 8.7 7.6 0 14-6.2 16-8.6.3-.4.3-1.1 0-1.5-5-5.8-10.4-8.7-15.8-8.7-7.7 0-13.7 6.1-15.9 8.6-.3.4-.3 1.1 0 1.5zm15.9 4.4c-2.8 0-5.1-2.3-5.1-5.1s2.3-5.1 5.1-5.1 5.1 2.3 5.1 5.1-2.3 5.1-5.1 5.1zm0-8.2c-1.7 0-3.1 1.4-3.1 3.1s1.4 3.1 3.1 3.1 3.1-1.4 3.1-3.1-1.4-3.1-3.1-3.1z"/></svg>