<svg id="Layer_1" enable-background="new 0 0 48 48" height="512" viewBox="0 0 48 48" width="512" xmlns="http://www.w3.org/2000/svg"><path d="m38.2 9.8c-.4-.4-1-.4-1.4 0l-4.7 4.7c-12.5-6-22.6 4.1-25.5 7.4-1 1.1-1 2.9 0 4.1 2.4 2.8 4.9 4.9 7.5 6.5l-4.3 4.3c-.4.4-.4 1 0 1.4.2.2.5.3.7.3.3 0 .5-.1.7-.3l27-27c.4-.4.4-1 0-1.4zm-30.1 14.9c-.3-.4-.3-1.1 0-1.5 3.3-3.8 11.9-11.8 22.5-7.2l-3.7 3.7c-.9-.5-1.9-.8-2.9-.8-2.8 0-5.1 2.3-5.1 5.1 0 1 .3 2 .9 2.9l-4.2 4.1c-2.6-1.4-5-3.5-7.5-6.3zm13.1.7c-.2-.4-.3-.9-.3-1.4 0-1.7 1.4-3.1 3.1-3.1.5 0 1 .1 1.4.3zm20.2.7c-2.6 3.1-9.1 9.3-17.5 9.3-1.6 0-3.2-.2-4.9-.7-.5-.2-.8-.7-.7-1.2.2-.5.7-.8 1.2-.7 9.7 2.9 17.5-4.6 20.3-8 .3-.4.3-1.1 0-1.5-1.7-1.9-3.4-3.5-5.1-4.8-.4-.3-.5-1-.2-1.4s1-.5 1.4-.2c1.8 1.4 3.7 3.1 5.4 5.1 1.1 1.1 1.1 2.9.1 4.1zm-13.1-2.2c.5.1.9.7.8 1.2-.5 2-2.1 3.6-4.1 3.9-.1 0-1 .1-1.2-.8-.1-.5.3-1.1.8-1.2 1.2-.2 2.2-1.2 2.5-2.4.1-.4.6-.8 1.2-.7z"/></svg>