<svg id="Line" height="512" viewBox="0 0 64 64" width="512" xmlns="http://www.w3.org/2000/svg"><path d="m59 53.3457h-2.81152v-42.6914a2.00229 2.00229 0 0 0 -2-2h-5.55176a2.00229 2.00229 0 0 0 -2 2v42.6914h-3.38965v-29.583a2.00229 2.00229 0 0 0 -2-2h-5.55176a2.00229 2.00229 0 0 0 -2 2v29.583h-3.39062v-12.29541a2.002 2.002 0 0 0 -2-2h-5.55127a2.002 2.002 0 0 0 -2 2v12.29541h-3.39063v-19.65722a2.002 2.002 0 0 0 -2-2h-5.55127a2.002 2.002 0 0 0 -2 2v19.65722h-2.81152a1 1 0 0 0 0 2h54a1 1 0 0 0 0-2zm-49.18848 0v-19.65722h5.55127v19.65722zm12.9419 0v-12.29541h5.55127v12.29541zm12.94189 0v-29.583h5.55176v29.583zm12.94141 0v-42.6914h5.55176v42.6914z" fill="rgb(0,0,0)"/></svg>