<svg clip-rule="evenodd" fill-rule="evenodd" height="512" stroke-linejoin="round" stroke-miterlimit="2" viewBox="0 0 12 12" width="512" xmlns="http://www.w3.org/2000/svg"><g id="Icon"><path d="m6.48 6.657v-.412c0-.142.081-.237.181-.328.097-.089.213-.172.329-.264.348-.279.69-.631.69-1.328 0-1.371-1.097-1.925-1.92-1.925s-1.92.548-1.92 1.925c0 .371.345.596.72.596s.72-.225.72-.596c0-.323.243-.48.48-.48.235 0 .48.16.48.48 0 .041-.031.073-.064.109-.07.079-.167.157-.272.244-.39.325-.864.755-.864 1.567v.412c0 .529.367.78.72.78s.72-.251.72-.78zm-.48 0c0 .191-.112.3-.24.3s-.24-.109-.24-.3v-.412c0-.748.545-1.063.859-1.34.214-.188.341-.377.341-.58 0-.64-.489-.96-.96-.96-.474 0-.96.313-.96.96 0 .042-.034.065-.07.082-.05.024-.11.034-.17.034s-.12-.01-.17-.034c-.036-.017-.07-.04-.07-.082 0-1.033.823-1.445 1.44-1.445s1.44.416 1.44 1.445c0 .62-.388.857-.686 1.09-.293.229-.514.464-.514.83z"/><path d="m6.48 6.657v-.412c0-.142.081-.237.181-.328.097-.089.213-.172.329-.264.348-.279.69-.631.69-1.328 0-1.371-1.097-1.925-1.92-1.925s-1.92.548-1.92 1.925c0 .371.345.596.72.596s.72-.225.72-.596c0-.323.243-.48.48-.48.235 0 .48.16.48.48 0 .041-.031.073-.064.109-.07.079-.167.157-.272.244-.39.325-.864.755-.864 1.567v.412c0 .529.367.78.72.78s.72-.251.72-.78zm-.48 0c0 .191-.112.3-.24.3s-.24-.109-.24-.3v-.412c0-.748.545-1.063.859-1.34.214-.188.341-.377.341-.58 0-.64-.489-.96-.96-.96-.474 0-.96.313-.96.96 0 .042-.034.065-.07.082-.05.024-.11.034-.17.034s-.12-.01-.17-.034c-.036-.017-.07-.04-.07-.082 0-1.033.823-1.445 1.44-1.445s1.44.416 1.44 1.445c0 .62-.388.857-.686 1.09-.293.229-.514.464-.514.83z"/><path d="m5.76 7.68c-.397 0-.72.323-.72.72s.323.72.72.72.72-.323.72-.72-.323-.72-.72-.72zm0 .48c.132 0 .24.108.24.24s-.108.24-.24.24-.24-.108-.24-.24.108-.24.24-.24z"/><path d="m3.636 9.791c.634.335 1.356.525 2.123.525 2.515 0 4.557-2.043 4.557-4.558 0-2.516-2.042-4.558-4.557-4.558-2.516 0-4.558 2.042-4.558 4.558 0 1.08.376 2.073 1.005 2.854-.234.188-.611.514-.81.802-.205.296-.216.576-.042.75.074.073.18.125.316.146.137.02.315.008.51-.028.523-.099 1.194-.377 1.456-.491zm-1.923.044c.003-.011.007-.024.011-.034.016-.037.039-.075.067-.114.267-.388.902-.845.902-.845.055-.04.09-.102.097-.17.007-.067-.015-.135-.06-.185-.652-.723-1.049-1.68-1.049-2.729 0-2.251 1.827-4.078 4.078-4.078 2.25 0 4.077 1.827 4.077 4.078 0 2.25-1.827 4.078-4.077 4.078-.725 0-1.405-.189-1.995-.521-.067-.038-.148-.041-.218-.009 0 0-.838.387-1.455.504-.116.022-.222.034-.311.029-.025-.002-.049.001-.067-.004z"/></g></svg>