<svg height="512pt" viewBox="0 0 512 512" width="512pt" xmlns="http://www.w3.org/2000/svg"><path d="m512 256c0 141.386719-114.613281 256-256 256s-256-114.613281-256-256 114.613281-256 256-256 256 114.613281 256 256zm0 0" fill="#414952"/><path d="m281.878906 510.703125c129.230469-12.972656 230.121094-122.054687 230.121094-254.703125 0-8.679688-.4375-17.257812-1.28125-25.714844l-117.785156-117.785156-312.597656 172.308594 127.304687 127.308594-11.464844 12.882812zm0 0" fill="#23272b"/><path d="m264.410156 425h-68.234375l-41.097656-196.761719h68.238281zm0 0" fill="#ff432e"/><path d="m223.316406 228.238281h-34.507812l40.933594 196.761719h34.667968zm0 0" fill="#db0404"/><path d="m392.933594 363.902344-237.855469-67.171875v-117.058594l237.855469-67.171875zm0 0" fill="#fff"/><path d="m155.078125 236.855469v59.875l237.855469 67.175781v-127.050781zm0 0" fill="#e9edf5"/><path d="m155.078125 179.671875h-46.460937c-20.421876 0-36.972657 16.554687-36.972657 36.976563v44.355468c0 20.417969 16.550781 36.972656 36.972657 36.972656h46.460937zm0 0" fill="#ff432e"/><path d="m71.644531 236.855469v24.148437c0 20.417969 16.550781 36.972656 36.972657 36.972656h46.460937v-61.121093zm0 0" fill="#db0404"/></svg>