<svg height="512pt" viewBox="0 0 512 512" width="512pt" xmlns="http://www.w3.org/2000/svg"><path d="m512 256c0 141.386719-114.613281 256-256 256s-256-114.613281-256-256 114.613281-256 256-256 256 114.613281 256 256zm0 0" fill="#ff432e"/><path d="m510.695312 281.996094-218.695312-218.691406-57.617188 10.457031-124.082031 310.496093 39.5625 39.5625-1.59375 1.542969 85.679688 85.679688c7.269531.621093 14.621093.957031 22.050781.957031 132.609375 0 241.664062-100.828125 254.695312-230.003906zm0 0" fill="#db0404"/><path d="m216.589844 398.589844c0 21.765625-17.644532 39.410156-39.410156 39.410156-21.765626 0-39.410157-17.644531-39.410157-39.410156s17.644531-39.410156 39.410157-39.410156c21.765624 0 39.410156 17.644531 39.410156 39.410156zm0 0" fill="#fdba12"/><path d="m177.179688 359.179688c-.179688 0-.359376.011718-.535157.011718v78.792969c.179688.003906.355469.015625.535157.015625 21.765624 0 39.410156-17.644531 39.410156-39.410156s-17.644532-39.410156-39.410156-39.410156zm0 0" fill="#ffa300"/><path d="m401.699219 384.257812h-291.398438l21.796875-169.285156c8.023438-62.3125 61.078125-108.972656 123.902344-108.972656s115.878906 46.660156 123.902344 108.972656zm0 0" fill="#ffe000"/><path d="m379.902344 214.972656c-8.023438-62.3125-61.078125-108.972656-123.902344-108.972656-.0625 0-.128906.003906-.191406.003906v278.253906h145.890625zm0 0" fill="#ffc200"/><path d="m256 143c-26.46875 0-48-21.53125-48-48s21.53125-48 48-48 48 21.53125 48 48-21.53125 48-48 48zm0-66c-9.925781 0-18 8.074219-18 18s8.074219 18 18 18 18-8.074219 18-18-8.074219-18-18-18zm0 0" fill="#ffe000"/><path d="m256 47c-.0625 0-.128906.003906-.191406.003906v30.007813c.066406-.003907.128906-.011719.191406-.011719 9.925781 0 18 8.074219 18 18s-8.074219 18-18 18c-.0625 0-.125-.007812-.191406-.011719v30.007813c.066406 0 .128906.003906.191406.003906 26.46875 0 48-21.53125 48-48s-21.53125-48-48-48zm0 0" fill="#ffc200"/></svg>