<svg fill="none" height="300" viewBox="0 0 24 24" width="300" xmlns="http://www.w3.org/2000/svg" xmlns:xlink="http://www.w3.org/1999/xlink" version="1.1" xmlns:svgjs="http://svgjs.dev/svgjs"><g width="100%" height="100%" transform="matrix(1,0,0,1,0,0)"><clipPath id="clip0_1520_2930"><path d="m0 0h24v24h-24z" fill="#ffffff" fill-opacity="1" data-original-color="#000000ff" stroke="none" stroke-opacity="1"/></clipPath><g clip-path="url(#clip0_1520_2930)"><path clipRule="evenodd" d="m2.76256 1.17678c.68342-.683419 1.79146-.68342 2.47488 0l6.58576 6.58579c.0977.09763.2559.09763.3536 0l6.5858-6.58579c.6834-.68342 1.7914-.683419 2.4748 0l1.5858 1.58578c.6834.68342.6834 1.79146 0 2.47488l-6.5858 6.58576c-.0976.0977-.0976.2559 0 .3536l6.5858 6.5858c.6834.6834.6834 1.7914 0 2.4748l-1.5858 1.5858c-.6834.6834-1.7914.6834-2.4748 0l-6.5858-6.5858c-.0977-.0976-.2559-.0976-.3536 0l-6.58576 6.5858c-.68342.6834-1.79146.6834-2.47488 0l-1.58578-1.5858c-.683418-.6834-.68342-1.7914 0-2.4748l6.58579-6.5858c.09763-.0977.09763-.2559 0-.3536l-6.58579-6.58576c-.68342-.68342-.683418-1.79146 0-2.47488z" fill="#ffffff" fillRule="evenodd" fill-opacity="1" data-original-color="#000000ff" stroke="none" stroke-opacity="1"/></g></g></svg>