<svg id="svg8" height="512" viewBox="0 0 8.4666665 8.4666669" width="512" xmlns="http://www.w3.org/2000/svg" xmlns:svg="http://www.w3.org/2000/svg"><g id="layer1"><path id="path4671" d="m2.6463499.52942505c-.435161 0-.7927165.3575555-.7927165.79271645v.5291667h-.5431192c-.43515995 0-.79478345.3580712-.79478345.7932333v4.4979167c0 .435161.3596235.7947834.79478345.7947834h4.5118707c.43516 0 .792715-.3596214.792715-.7947834v-.5291667h.543118c.435163 0 .792716-.3580723.792718-.7932333v-4.4979167c0-.43516095-.357555-.79271645-.792718-.79271645zm0 .52916655h4.511868c.151159 0 .263552.112395.263552.2635499v4.4979167c0 .151157-.112393.2635499-.263552.2635499h-.543118v-3.4390666c0-.4351621-.357555-.7932333-.792715-.7932333h-3.4395849v-.5291667c0-.1511549.112395-.2635499.2635499-.2635499zm-1.3358357 1.3224h4.5118707c.151153 0 .263548.1123929.263548.2635499v4.4979167c0 .1511548-.112395.2656168-.263548.2656168h-4.5118707c-.1511552 0-.2656179-.1144609-.2656168-.2656168v-4.4979167c0-.151157.1144616-.2635499.2656168-.2635499zm.9859862 1.5740642a.26458299.26458299 0 0 0 -.2656168.2635499.26458299.26458299 0 0 0 .2656168.2656168h2.5393801a.26458299.26458299 0 0 0 .2635496-.2656168.26458299.26458299 0 0 0 -.2635496-.2635499zm0 1.3358358a.26458299.26458299 0 0 0 -.2656168.2635498.26458299.26458299 0 0 0 .2656168.2656168h2.5393801a.26458299.26458299 0 0 0 .2635496-.2656168.26458299.26458299 0 0 0 -.2635496-.2635498z" font-variant-ligatures="normal" font-variant-position="normal" font-variant-caps="normal" font-variant-numeric="normal" font-variant-alternates="normal" font-variant-east-asian="normal" font-feature-settings="normal" font-variation-settings="normal" text-indent="0" text-align="start" text-decoration-line="none" text-decoration-style="solid" text-decoration-color="rgb(0,0,0)" text-transform="none" text-orientation="mixed" white-space="normal" shape-padding="0" shape-margin="0" inline-size="0" isolation="auto" mix-blend-mode="normal" solid-color="rgb(0,0,0)" solid-opacity="1" vector-effect="none" paint-order="stroke fill markers"/></g></svg>