<svg clip-rule="evenodd" fill-rule="evenodd" stroke-linejoin="round" stroke-miterlimit="2" viewBox="0 0 510 510" xmlns="http://www.w3.org/2000/svg" width="300" height="300" version="1.1" xmlns:xlink="http://www.w3.org/1999/xlink" xmlns:svgjs="http://svgjs.dev/svgjs"><g width="100%" height="100%" transform="matrix(1,0,0,1,0,0)"><path d="m101.206 359.879v-101.431c0-38.64 15.35-75.698 42.673-103.021s64.38-42.673 103.021-42.673h17.339c38.641 0 75.698 15.35 103.021 42.673s42.673 64.381 42.673 103.021v101.431zm154.363-30.112c8.087 0 14.653-6.566 14.653-14.653 0-8.086-6.566-14.652-14.653-14.652-8.086 0-14.652 6.566-14.652 14.652 0 8.087 6.566 14.653 14.652 14.653zm6.08-179.187h-12.159c-3.537 0-6.915 1.469-9.326 4.057-2.411 2.587-3.639 6.06-3.39 9.589l7.311 103.532c.405 5.729 5.171 10.171 10.915 10.171h.571c6.064 0 11.095-4.689 11.523-10.738l7.271-102.965c.249-3.529-.979-7.002-3.39-9.589-2.411-2.588-5.789-4.057-9.326-4.057zm-204.059 267.315v-15.237c0-7.633 3.032-14.953 8.429-20.35s12.717-8.429 20.35-8.429h338.401c7.633 0 14.953 3.032 20.35 8.429s8.429 12.717 8.429 20.35v15.237zm403.849 14c6.678 0 13.083 2.653 17.806 7.375 4.722 4.723 7.375 11.128 7.375 17.806v21.035h-462.102v-21.035c0-6.678 2.654-13.083 7.376-17.806 4.722-4.722 11.128-7.375 17.806-7.375zm-212.87-393.006c0-3.864 3.137-7 7-7 3.864 0 7 3.136 7 7v38.758c0 3.864-3.136 7-7 7-3.863 0-7-3.136-7-7zm120.862 28.938c1.932-3.345 6.216-4.493 9.562-2.562 3.346 1.932 4.494 6.217 2.562 9.562l-19.379 33.566c-1.932 3.346-6.216 4.494-9.562 2.562-3.346-1.931-4.494-6.216-2.562-9.562zm90.2 85.493c3.346-1.932 7.63-.784 9.562 2.562s.784 7.63-2.562 9.562l-33.566 19.379c-3.346 1.932-7.63.784-9.562-2.562s-.784-7.63 2.562-9.562zm35.369 119.138c3.863 0 7 3.137 7 7 0 3.864-3.137 7-7 7h-38.758c-3.864 0-7-3.136-7-7 0-3.863 3.136-7 7-7zm-480 12.861c-3.863 0-7-3.136-7-7 0-3.863 3.137-7 7-7h38.758c3.864 0 7 3.137 7 7 0 3.864-3.136 7-7 7zm28.939-120.861c-3.346-1.932-4.494-6.217-2.563-9.562 1.932-3.346 6.217-4.494 9.563-2.563l33.565 19.38c3.346 1.931 4.494 6.216 2.563 9.562-1.932 3.346-6.217 4.494-9.563 2.562zm85.492-90.2c-1.932-3.346-.784-7.63 2.562-9.562s7.631-.784 9.562 2.562l19.38 33.566c1.931 3.346.783 7.63-2.563 9.562-3.345 1.932-7.63.784-9.562-2.562z" fill="#ffffff" fill-opacity="1" data-original-color="#000000ff" stroke="none" stroke-opacity="1"/></g></svg>