<svg id="Capa_1" enable-background="new 0 0 512 512" height="512" viewBox="0 0 512 512" width="512" xmlns="http://www.w3.org/2000/svg"><g><path d="m64.938 112h-35.004c-8.284 0-15 6.716-15 15v122.279c0 8.284 6.716 15 15 15h35.017z"/><path d="m397.062 27.393-123.253 35.115v250.258l10.929 3.114-12.205 42.176h-44.201l15.335-48.736h.143v-243.366h-109.945c-10.381 0-20.145 4.023-27.493 11.328-7.373 7.329-11.433 17.08-11.432 27.457l.014 165.802c.001 19.425 14.412 35.556 33.139 38.349l-57.772 183.608c-1.434 4.557-.611 9.523 2.214 13.375 2.827 3.852 7.318 6.127 12.095 6.127h84.258c6.55 0 12.342-4.25 14.309-10.498l35.695-113.446h64.915c6.679 0 12.553-4.415 14.409-10.83l15.375-53.126 83.471 23.781z"/><path d="m482.066 0h-40.003c-8.284 0-15 6.716-15 15v345.274c0 8.284 6.716 15 15 15h40.003c8.284 0 15-6.716 15-15v-345.274c0-8.284-6.716-15-15-15z"/></g></svg>