<svg id="Layer_1" enable-background="new 0 0 64 64.001" height="64.001" viewBox="0 0 64 64.001" width="64" xmlns="http://www.w3.org/2000/svg"><g id="Loader_6_"><g><path clip-rule="evenodd" d="m32 48.001c-2.209 0-4 1.79-4 3.999v8c0 2.21 1.791 4.001 4 4.001s4-1.791 4-4.001v-8c0-2.209-1.791-3.999-4-3.999zm26.249-5.465-6.929-4c-1.913-1.104-4.359-.449-5.464 1.465-1.104 1.912-.449 4.359 1.464 5.463l6.928 4c1.914 1.105 4.36.449 5.465-1.463 1.104-1.914.449-4.36-1.464-5.465zm-34.249 3.32c-1.913-1.104-4.359-.449-5.464 1.465l-4 6.928c-1.104 1.913-.449 4.359 1.464 5.464s4.359.449 5.464-1.464l4-6.928c1.104-1.914.449-4.359-1.464-5.465zm21.464 1.465c-1.104-1.914-3.551-2.569-5.464-1.465-1.913 1.105-2.568 3.551-1.464 5.465l3.999 6.928c1.105 1.913 3.552 2.568 5.465 1.464s2.568-3.551 1.464-5.464z" fill="#e6e6e6" fill-rule="evenodd"/></g></g><g id="Loader_7_"><g><path clip-rule="evenodd" d="m12 36.001c2.209 0 4-1.791 4-4.001 0-2.209-1.791-4-4-4h-8c-2.209 0-4 1.791-4 4 0 2.21 1.791 4.001 4 4.001zm6.144 4c-1.104-1.914-3.551-2.569-5.464-1.465l-6.929 4c-1.913 1.104-2.568 3.551-1.464 5.465 1.104 1.912 3.551 2.568 5.464 1.463l6.929-4c1.913-1.104 2.568-3.551 1.464-5.463z" fill="#ccc" fill-rule="evenodd"/></g></g><g id="Loader_8_"><g><path clip-rule="evenodd" d="m16.68 18.536-6.929-4c-1.913-1.104-4.359-.449-5.464 1.465-1.104 1.912-.449 4.358 1.464 5.463l6.929 4c1.913 1.105 4.359.449 5.464-1.464s.449-4.359-1.464-5.464zm8.784-5.856-4-6.928c-1.105-1.913-3.551-2.569-5.464-1.465s-2.568 3.552-1.464 5.465l4 6.928c1.104 1.913 3.551 2.568 5.464 1.464s2.568-3.551 1.464-5.464z" fill="#b3b3b3" fill-rule="evenodd"/></g></g><g id="Loader_9_"><g><path clip-rule="evenodd" d="m32 0c-2.209 0-4 1.791-4 4.001v8c0 2.208 1.791 4 4 4s4-1.792 4-4v-8c0-2.21-1.791-4.001-4-4.001zm16 4.287c-1.913-1.104-4.359-.448-5.465 1.465l-3.999 6.928c-1.104 1.913-.449 4.36 1.464 5.464s4.359.449 5.464-1.464l4-6.928c1.104-1.913.449-4.36-1.464-5.465z" fill="#999" fill-rule="evenodd"/></g></g><g id="Loader_10_"><g><path clip-rule="evenodd" d="m60 28h-8c-2.209 0-4 1.791-4 4 0 2.21 1.791 4.001 4 4.001h8c2.209 0 4-1.791 4-4.001 0-2.209-1.791-4-4-4zm-8.68-2.536 6.929-4c1.913-1.104 2.568-3.551 1.464-5.463-1.104-1.914-3.551-2.569-5.465-1.465l-6.928 4c-1.913 1.104-2.568 3.551-1.464 5.464s3.551 2.569 5.464 1.464z" fill="#808080" fill-rule="evenodd"/></g></g><g/><g/><g/><g/><g/><g/><g/><g/><g/><g/><g/><g/><g/><g/><g/></svg>