<svg fill="none" height="300" viewBox="0 0 24 24" width="300" xmlns="http://www.w3.org/2000/svg" version="1.1" xmlns:xlink="http://www.w3.org/1999/xlink" xmlns:svgjs="http://svgjs.dev/svgjs"><g width="100%" height="100%" transform="matrix(1,0,0,1,0,0)"><path d="m16 18h-1c-.6 0-1-.4-1-1s.4-1 1-1h1c.8 0 1.6-.3 2.1-.9s.9-1.3.9-2.1-.3-1.6-.9-2.1c-.5-.6-1.3-.9-2.1-.9h-8.6l2.3 2.3c.4.4.4 1 0 1.4s-1 .4-1.4 0l-4-4c-.1-.1-.2-.2-.2-.3-.1-.1-.1-.3-.1-.4s0-.3.1-.4c0-.1.1-.2.2-.3l4-4c.4-.4 1-.4 1.4 0s.4 1 0 1.4l-2.3 2.3h8.6c1.3 0 2.6.5 3.5 1.5.9.9 1.5 2.2 1.5 3.5s-.5 2.6-1.5 3.5-2.2 1.5-3.5 1.5z" fill="#1a1a1a" fill-opacity="1" data-original-color="#000000ff" stroke="none" stroke-opacity="1"/></g></svg>