<svg fill="none" height="512" viewBox="0 0 24 24" width="512" xmlns="http://www.w3.org/2000/svg" xmlns:xlink="http://www.w3.org/1999/xlink"><clipPath id="clip0_429_11066"><path d="m0 .001h24v24h-24z"/></clipPath><g clip-path="url(#clip0_429_11066)"><path clip-rule="evenodd" d="m1.75 6.00092c0-.69036.55964-1.25 1.25-1.25h18c.6904 0 1.25.55964 1.25 1.25 0 .69035-.5596 1.25-1.25 1.25h-18c-.69036 0-1.25-.55965-1.25-1.25zm0 5.99998c0-.6903.55964-1.25 1.25-1.25h18c.6904 0 1.25.5597 1.25 1.25 0 .6904-.5596 1.25-1.25 1.25h-18c-.69036 0-1.25-.5596-1.25-1.25zm0 6c0-.6903.55964-1.25 1.25-1.25h18c.6904 0 1.25.5597 1.25 1.25 0 .6904-.5596 1.25-1.25 1.25h-18c-.69036 0-1.25-.5596-1.25-1.25z" fill="#292929" fill-rule="evenodd"/></g></svg>