<?xml version="1.0" encoding="UTF-8" standalone="no"?>
<!-- Created with Inkscape (http://www.inkscape.org/) -->

<svg
   version="1.1"
   id="svg2136"
   xml:space="preserve"
   width="682.66669"
   height="682.66669"
   viewBox="0 0 682.66669 682.66669"
   xmlns="http://www.w3.org/2000/svg"
   xmlns:svg="http://www.w3.org/2000/svg"><defs
     id="defs2140"><clipPath
       clipPathUnits="userSpaceOnUse"
       id="clipPath2150"><path
         d="M 0,512 H 512 V 0 H 0 Z"
         id="path2148" /></clipPath></defs><g
     id="g2142"
     transform="matrix(1.3333333,0,0,-1.3333333,0,682.66667)"><g
       id="g2144"><g
         id="g2146"
         clip-path="url(#clipPath2150)"><g
           id="g2152"
           transform="translate(256,497)"><path
             d="M 0,0 C -133.101,0 -241,-107.899 -241,-241 H 241 C 241,-107.899 133.101,0 0,0 Z"
             style="fill:none;stroke:#000000;stroke-width:30;stroke-linecap:round;stroke-linejoin:round;stroke-miterlimit:10;stroke-dasharray:none;stroke-opacity:1"
             id="path2154" /></g><g
           id="g2156"
           transform="translate(256,497)"><path
             d="m 0,0 c -66.551,0 -120.5,-107.899 -120.5,-241 h 241 C 120.5,-107.899 66.551,0 0,0 Z"
             style="fill:none;stroke:#000000;stroke-width:30;stroke-linecap:round;stroke-linejoin:round;stroke-miterlimit:10;stroke-dasharray:none;stroke-opacity:1"
             id="path2158" /></g><g
           id="g2160"
           transform="translate(256,256)"><path
             d="M 0,0 V 241"
             style="fill:none;stroke:#000000;stroke-width:30;stroke-linecap:round;stroke-linejoin:round;stroke-miterlimit:10;stroke-dasharray:none;stroke-opacity:1"
             id="path2162" /></g><g
           id="g2164"
           transform="translate(47.5049,376.5)"><path
             d="M 0,0 H 416.99"
             style="fill:none;stroke:#000000;stroke-width:30;stroke-linecap:round;stroke-linejoin:round;stroke-miterlimit:10;stroke-dasharray:none;stroke-opacity:1"
             id="path2166" /></g><path
           d="M 497,15 H 15 v 241 h 482 z"
           style="fill:none;stroke:#000000;stroke-width:30;stroke-linecap:round;stroke-linejoin:round;stroke-miterlimit:10;stroke-dasharray:none;stroke-opacity:1"
           id="path2168" /><g
           id="g2170"
           transform="translate(71.4663,91)"><path
             d="M 0,0 V 89.832 L 60.734,1.884 c 1.127,-1.627 2.332,-0.83 2.332,1.149 L 62.226,90"
             style="fill:none;stroke:#000000;stroke-width:25;stroke-linecap:round;stroke-linejoin:round;stroke-miterlimit:10;stroke-dasharray:none;stroke-opacity:1"
             id="path2172" /></g><g
           id="g2174"
           transform="translate(214.9609,181)"><path
             d="M 0,0 H -37.922 V -90 H 0"
             style="fill:none;stroke:#000000;stroke-width:25;stroke-linecap:round;stroke-linejoin:round;stroke-miterlimit:10;stroke-dasharray:none;stroke-opacity:1"
             id="path2176" /></g><g
           id="g2178"
           transform="translate(212.1646,136)"><path
             d="M 0,0 H -35.126"
             style="fill:none;stroke:#000000;stroke-width:25;stroke-linecap:round;stroke-linejoin:round;stroke-miterlimit:10;stroke-dasharray:none;stroke-opacity:1"
             id="path2180" /></g><g
           id="g2182"
           transform="translate(439.248,171.748)"><path
             d="m 0,0 c 0,0 -16.15,13.575 -35.194,7.838 -17.487,-5.268 -19.932,-25.431 -7.282,-33.678 0,0 12.414,-5.539 26.183,-10.618 33.145,-12.225 18.867,-44.29 -7.814,-44.29 -13.363,0 -24.577,5.851 -31.364,13.341"
             style="fill:none;stroke:#000000;stroke-width:25;stroke-linecap:round;stroke-linejoin:round;stroke-miterlimit:10;stroke-dasharray:none;stroke-opacity:1"
             id="path2184" /></g><g
           id="g2186"
           transform="translate(254.2476,181)"><path
             d="m 0,0 17.535,-88.648 c 0.645,-1.815 3.217,-1.798 3.838,0.025 l 27.379,88.457"
             style="fill:none;stroke:#000000;stroke-width:25;stroke-linecap:round;stroke-linejoin:round;stroke-miterlimit:10;stroke-dasharray:none;stroke-opacity:1"
             id="path2188" /></g><g
           id="g2190"
           transform="translate(303,181)"><path
             d="m 0,0 27.31,-88.648 c 0.644,-1.815 3.216,-1.798 3.836,0.025 l 17.606,88.457"
             style="fill:none;stroke:#000000;stroke-width:25;stroke-linecap:round;stroke-linejoin:round;stroke-miterlimit:10;stroke-dasharray:none;stroke-opacity:1"
             id="path2192" /></g></g></g></g></svg>
