<svg id="Layer_1" height="512" viewBox="0 0 512 512" width="512" xmlns="http://www.w3.org/2000/svg" data-name="Layer 1"><path d="m256 0c-141.159 0-256 114.841-256 256s114.841 256 256 256 256-114.841 256-256-114.841-256-256-256zm0 480c-123.514 0-224-100.486-224-224s100.486-224 224-224 224 100.486 224 224-100.486 224-224 224zm137.549-152.8a177.963 177.963 0 0 1 -275.1 0 16 16 0 1 1 24.721-20.319 145.963 145.963 0 0 0 225.657 0 16 16 0 0 1 24.721 20.319zm-100.413-115.445v-11.255c0-23.566 21.982-42.738 49-42.738s49 19.172 49 42.738v11.26a16 16 0 0 1 -32 0v-11.26c0-5.069-7.271-10.738-17-10.738s-17 5.669-17 10.738v11.26a16 16 0 1 1 -32 0zm-172.277 0v-11.255c0-23.566 21.983-42.738 49-42.738s49 19.172 49 42.738v11.26a16 16 0 0 1 -32 0v-11.26c0-5.069-7.27-10.738-17-10.738s-17 5.669-17 10.738v11.26a16 16 0 1 1 -32 0z"/></svg>