<svg id="Layer_1" enable-background="new 0 0 24 24" viewBox="0 0 24 24" xmlns="http://www.w3.org/2000/svg"><circle cx="5" cy="10" r="2"/><circle cx="12" cy="7" r="2"/><circle cx="19" cy="4" r="2"/><path d="m21.5 21h-.5v-11c0-1.1-.9-2-2-2s-2 .9-2 2v11h-3v-8c0-1.1-.9-2-2-2s-2 .9-2 2v8h-3v-5c0-1.1-.9-2-2-2s-2 .9-2 2v5h-.5c-.28 0-.5.22-.5.5s.22.5.5.5h1 3 4 3 4 3 1c.28 0 .5-.22.5-.5s-.22-.5-.5-.5z"/><g><path d="m6.38 9.91c-.19 0-.38-.11-.46-.3-.11-.26.01-.55.26-.66l4.25-1.82c.26-.11.55.01.66.26s-.01.55-.26.66l-4.25 1.82c-.07.03-.13.04-.2.04z"/></g><g><path d="m13.38 6.91c-.19 0-.38-.11-.46-.3-.11-.25.01-.55.26-.66l4.25-1.82c.25-.11.55.01.66.26s-.01.55-.26.66l-4.25 1.82c-.07.03-.13.04-.2.04z"/></g></svg>