<svg id="Layer_1" enable-background="new 0 0 66 66" height="512" viewBox="0 0 66 66" width="512" xmlns="http://www.w3.org/2000/svg"><g id="XMLID_731_"><path id="XMLID_749_" d="m33 35c-4.6 0-8.3 3.7-8.3 8.3s3.7 8.3 8.3 8.3 8.3-3.7 8.3-8.3-3.7-8.3-8.3-8.3z"/><path id="XMLID_750_" d="m47.7 14.7h9l-13.1-13.1v9c0 2.3 1.9 4.1 4.1 4.1z"/><path id="XMLID_753_" d="m47.7 16.7c-3.4 0-6.1-2.7-6.1-6.1v-9.6h-29c-2.2 0-3.9 1.8-3.9 3.9v56.2c0 2.2 1.8 3.9 3.9 3.9h40.8c2.2 0 3.9-1.8 3.9-3.9v-44.4zm-32.2-5.5h15.9c.6 0 1 .4 1 1s-.4 1-1 1h-15.9c-.6 0-1-.4-1-1s.4-1 1-1zm33.4 33.8c0 .4-.3.8-.7 1l-3.3 1c-.2.7-.5 1.4-.9 2.2l1.6 3.1c.2.4.1.9-.2 1.2l-2.4 2.2c-.3.3-.8.4-1.2.2l-3.1-1.6c-.7.4-1.4.7-2.2.9l-1 3.3c-.1.4-.5.7-1 .7h-3.3c-.4 0-.8-.3-1-.7l-1-3.3c-.8-.2-1.5-.5-2.2-.9l-3.1 1.6c-.4.2-.9.1-1.2-.2l-2.4-2.4c-.3-.3-.4-.8-.2-1.2l1.6-3c-.4-.7-.7-1.4-.9-2.2l-3.3-1c-.4-.1-.7-.5-.7-1v-3.3c0-.4.3-.8.7-1l3.3-1c.2-.7.5-1.5.9-2.2l-1.6-3c-.2-.4-.1-.9.2-1.2l2.4-2.4c.3-.3.8-.4 1.2-.2l3.1 1.6c.7-.4 1.4-.7 2.2-.9l1-3.3c.1-.4.5-.7 1-.7h3.3c.4 0 .8.3 1 .7l1 3.3c.8.2 1.5.5 2.2.9l3.1-1.6c.4-.2.9-.1 1.2.2l2.4 2.4c.3.3.4.8.2 1.2l-1.6 3.1c.4.7.7 1.4.9 2.2l3.3 1c.4.1.7.5.7 1zm1.6-23.6h-35c-.6 0-1-.4-1-1s.4-1 1-1h35c.6 0 1 .4 1 1s-.4 1-1 1z"/></g></svg>