<svg id="Layer_1" enable-background="new 0 0 66 66" height="512" viewBox="0 0 66 66" width="512" xmlns="http://www.w3.org/2000/svg"><g id="XMLID_236_"><path id="XMLID_838_" d="m57 15-13.6-13.7c-.2-.2-.5-.3-.8-.3h-30c-2.2 0-3.9 1.8-3.9 3.9v56.2c0 2.2 1.8 3.9 3.9 3.9h40.9c2.2 0 3.9-1.8 3.9-3.9v-45.4c-.1-.3-.2-.5-.4-.7zm-13.4-10.6 10.3 10.3h-8.4c-1.1 0-1.9-.9-1.9-1.9zm9.8 58.6h-40.8c-1.1 0-1.9-.9-1.9-1.9v-56.2c0-1.1.9-1.9 1.9-1.9h29.1v9.8c0 2.2 1.8 3.9 3.9 3.9h9.8v44.4c-.1 1-.9 1.9-2 1.9z"/><path id="XMLID_840_" d="m15.5 13.2h15.9c.6 0 1-.4 1-1s-.4-1-1-1h-15.9c-.6 0-1 .4-1 1s.4 1 1 1z"/><path id="XMLID_841_" d="m50.5 19.4h-35c-.6 0-1 .4-1 1s.4 1 1 1h35c.6 0 1-.4 1-1s-.4-1-1-1z"/><path id="XMLID_844_" d="m48.2 40.7-3.3-1c-.2-.7-.5-1.4-.9-2.2l1.6-3.1c.2-.4.1-.9-.2-1.2l-2.4-2.3c-.3-.3-.8-.4-1.2-.2l-3.1 1.6c-.7-.4-1.4-.7-2.2-.9l-1-3.3c-.1-.4-.5-.7-1-.7h-3.3c-.4 0-.8.3-1 .7l-1 3.3c-.8.2-1.5.5-2.2.9l-3.1-1.6c-.4-.2-.9-.1-1.2.2l-2.4 2.4c-.3.3-.4.8-.2 1.2l1.6 3c-.4.7-.7 1.4-.9 2.2l-3.3 1c-.4.1-.7.5-.7 1v3.3c0 .4.3.8.7 1l3.3 1c.2.7.5 1.5.9 2.2l-1.6 3c-.2.4-.1.9.2 1.2l2.4 2.4c.3.3.8.4 1.2.2l3.1-1.6c.7.4 1.4.7 2.2.9l1 3.3c.1.4.5.7 1 .7h3.3c.4 0 .8-.3 1-.7l1-3.3c.8-.2 1.5-.5 2.2-.9l3.1 1.6c.4.2.9.1 1.2-.2l2.4-2.4c.3-.3.4-.8.2-1.2l-1.6-3.1c.4-.7.7-1.4.9-2.2l3.3-1c.4-.1.7-.5.7-1v-3.3c0-.4-.3-.8-.7-.9zm-1.3 3.6-3.1 1c-.3.1-.6.4-.7.7-.2.9-.6 1.8-1.1 2.7-.2.3-.2.7 0 1l1.5 2.9-1.3 1.3-2.9-1.5c-.3-.2-.7-.1-1 0-.8.5-1.7.9-2.7 1.1-.3.1-.6.3-.7.7l-1 3.1h-1.9l-1-3.1c-.1-.3-.4-.6-.7-.7-1-.3-1.9-.6-2.7-1.1-.3-.2-.7-.2-1 0l-2.9 1.5-1.3-1.3 1.5-2.9c.2-.3.1-.7 0-1-.5-.9-.9-1.8-1.1-2.7-.1-.3-.3-.6-.7-.7l-3.1-1v-1.9l3.1-1c.3-.1.6-.4.7-.7.2-.9.6-1.8 1.1-2.7.2-.3.2-.7 0-1l-1.5-2.9 1.3-1.3 2.9 1.5c.3.2.7.1 1 0 .8-.5 1.7-.9 2.7-1.1.3-.1.6-.3.7-.7l1-3.1h1.9l1 3.1c.1.3.4.6.7.7 1 .3 1.9.6 2.7 1.1.3.2.7.2 1 0l2.9-1.5 1.3 1.3-1.5 2.9c-.2.3-.1.7 0 1 .5.9.9 1.8 1.1 2.7.1.3.3.6.7.7l3.1 1z"/><path id="XMLID_847_" d="m33 36.7c-3.7 0-6.7 3-6.7 6.6 0 3.7 3 6.6 6.7 6.6s6.6-3 6.6-6.6-2.9-6.6-6.6-6.6zm0 11.3c-2.6 0-4.7-2.1-4.7-4.6 0-2.6 2.1-4.6 4.7-4.6s4.6 2.1 4.6 4.6-2 4.6-4.6 4.6z"/></g></svg>