<svg id="glipy" viewBox="0 0 64 64" xmlns="http://www.w3.org/2000/svg"><path d="m27.00046 49.46818v9.53a1.01252 1.01252 0 0 0 1.35.93994l8-2.99994a1.00682 1.00682 0 0 0 .65-.94v-6.53l19.94-16.47h-49.88z"/><path d="m59.00046 24.99821h-54a1.003 1.003 0 0 0 -1 1v4a1.24036 1.24036 0 0 0 .64008.99994l54.71991.00006.28-.23a.99245.99245 0 0 0 .36-.77v-4a1.003 1.003 0 0 0 -.99999-1z"/><path d="m29.40049 11.49821c.28564.58252 1.06036.50818 1.6.49994v10.00006a1.00012 1.00012 0 0 0 2-.00006v-9.99994c.53845.007 1.31513.08337 1.59992-.50006l1.7301-2.99994a.99347.99347 0 0 0 0-1l-1.73-3a1.00344 1.00344 0 0 0 -.87-.5h-3.46a1.00344 1.00344 0 0 0 -.87.5l-1.73 3a.99343.99343 0 0 0 0 1z"/><path d="m44.00046 22.99821a1.003 1.003 0 0 0 1-1v-5h3a1.003 1.003 0 0 0 1-1v-4c.53723.00854 1.316.08221 1.59992-.50006l1.7301-2.99994a.99347.99347 0 0 0 0-1l-1.73-3a1.00344 1.00344 0 0 0 -.87-.5h-3.46a1.00344 1.00344 0 0 0 -.87.5l-1.73 3a.99343.99343 0 0 0 0 1l1.73 3c.2857.58252 1.0603.50818 1.6.49994v3.00006h-3a1.003 1.003 0 0 0 -1 1v6a1.003 1.003 0 0 0 .99998 1z"/><path d="m13.40049 11.49821c.28564.58252 1.06036.50818 1.6.49994v4.00006a1.003 1.003 0 0 0 1 1h3v5a1.00012 1.00012 0 0 0 2-.00006v-5.99994a1.003 1.003 0 0 0 -1-1h-3v-3h.73a1.00344 1.00344 0 0 0 .87-.5l1.73-3a.99347.99347 0 0 0 0-1l-1.73-3a1.00344 1.00344 0 0 0 -.87-.5h-3.46a1.00344 1.00344 0 0 0 -.87.5l-1.73 3a.99343.99343 0 0 0 0 1z"/></svg>