<?xml version="1.0"?>
<svg xmlns="http://www.w3.org/2000/svg" id="line" viewBox="0 0 64 64"><path d="M58.99815,24.99856H5.00185a1.00288,1.00288,0,0,0-.99993.99993v3.99973a.99237.99237,0,0,0,.36.76991L27.00034,49.46686v9.52937a1.01258,1.01258,0,0,0,1.34989.93988l7.99945-2.99973a1.00676,1.00676,0,0,0,.65-.93994V49.46686L59.63812,30.76813a.99237.99237,0,0,0,.36-.76991V25.99849A1.00288,1.00288,0,0,0,58.99815,24.99856ZM35.35976,48.227a.9925.9925,0,0,0-.36.77v6.30956l-5.99958,2.24985V48.99692a.9925.9925,0,0,0-.36-.77L10.2015,32.998h43.597ZM57.99822,29.52822l-1.77991,1.46993H7.78169L6.00178,29.52822V26.99843H57.99822Z"/><path d="M29.402,11.49949a.99978.99978,0,0,0,.86615.5h.73189v9.99932a.99993.99993,0,0,0,1.99986,0V11.99945h.73189a.99978.99978,0,0,0,.86615-.5l1.73181-2.9998a1.00192,1.00192,0,0,0,0-.99993L34.598,4.5a.99979.99979,0,0,0-.86615-.5H30.26818a.99979.99979,0,0,0-.86615.5L27.67022,7.49976a1.00192,1.00192,0,0,0,0,.99993Zm1.44326-5.49963h2.30942l1.15421,1.99987L33.15471,9.99959H30.84529L29.69108,7.99973Z"/><path d="M13.40313,11.49949a.99977.99977,0,0,0,.86615.5h.73188v3.99973a.99968.99968,0,0,0,.99994.99993h2.99979v4.99966a.99993.99993,0,1,0,1.99986,0V15.99918a.99966.99966,0,0,0-.99993-.99993H17.001v-2.9998h.73188a.99977.99977,0,0,0,.86615-.5l1.73182-2.9998a1.00192,1.00192,0,0,0,0-.99993L18.59906,4.5a.99978.99978,0,0,0-.86615-.5H14.26928a.99978.99978,0,0,0-.86615.5L11.67131,7.49976a1.00192,1.00192,0,0,0,0,.99993Zm1.44326-5.49963H17.1558L18.31,7.99973,17.1558,9.99959H14.84639L13.69217,7.99973Z"/><path d="M43.99918,22.9987a.99967.99967,0,0,0,.99993-.99993V16.99911H47.9989a.99968.99968,0,0,0,.99994-.99993V11.99945h.73188a.99977.99977,0,0,0,.86615-.5l1.73182-2.9998a1.00192,1.00192,0,0,0,0-.99993L50.59687,4.5a.99978.99978,0,0,0-.86615-.5H46.26709a.99978.99978,0,0,0-.86615.5L43.66912,7.49976a1.00192,1.00192,0,0,0,0,.99993l1.73182,2.9998a.99977.99977,0,0,0,.86615.5H46.999v2.9998H43.99918a.99966.99966,0,0,0-.99993.99993v5.99959A.99967.99967,0,0,0,43.99918,22.9987ZM45.69,7.99973,46.8442,5.99986h2.30941l1.15422,1.99987L49.15361,9.99959H46.8442Z"/></svg>
