<svg id="Layer_1" enable-background="new 0 0 1024 1024" viewBox="0 0 1024 1024" xmlns="http://www.w3.org/2000/svg"><g id="XMLID_1_"><g id="XMLID_7_"><g id="XMLID_41_"><path id="XMLID_46_" d="m126.3 322.2c0-19.8 0-39.6 0-59.4 0-31 0-62 0-93 0-8.4-.5-17 .4-25.4-.4 2.7-.7 5.3-1.1 8 .7-4.9 1.9-9.6 3.8-14.2-1 2.4-2 4.8-3 7.2 1.4-3.2 3-6.3 4.9-9.3 4-6.1-4.1 4.5-.8.9 1-1.1 2-2.3 3.1-3.4s2.2-2.1 3.4-3.1c3.6-3.3-6.9 4.8-.9.8 2.9-1.9 6-3.6 9.3-4.9-2.4 1-4.8 2-7.2 3 4.6-1.9 9.3-3.1 14.2-3.8-2.7.4-5.3.7-8 1.1 7-.8 14.3-.4 21.3-.4h40.2 94.4 21.8c15.7 0 30.7-13.8 30-30-.7-16.3-13.2-30-30-30-23.7 0-47.4 0-71 0-31.3 0-62.7 0-94 0-19.1 0-38.2 3.6-54 15.2-23.1 17-36.7 42.3-36.8 71.5-.1 28 0 55.9 0 83.9s-.4 56 0 84v1.5c0 15.7 13.8 30.7 30 30 16.3-.9 30-13.3 30-30.2z"/></g></g><g id="XMLID_6_"><g id="XMLID_35_"><path id="XMLID_39_" d="m322.2 897.7c-19.8 0-39.6 0-59.4 0-31 0-62 0-93 0-8.4 0-17 .5-25.4-.4 2.7.4 5.3.7 8 1.1-4.9-.7-9.6-1.9-14.2-3.8l7.2 3c-3.2-1.4-6.3-3-9.3-4.9-6.1-4 4.5 4.1.9.8-1.1-1-2.3-2-3.4-3.1s-2.1-2.2-3.1-3.4c-3.3-3.6 4.8 6.9.8.9-1.9-2.9-3.6-6-4.9-9.3l3 7.2c-1.9-4.6-3.1-9.3-3.8-14.2.4 2.7.7 5.3 1.1 8-.8-7-.4-14.3-.4-21.3 0-13.4 0-26.8 0-40.2 0-31.5 0-62.9 0-94.4 0-7.3 0-14.6 0-21.8 0-15.7-13.8-30.7-30-30-16.3.7-30 13.2-30 30v71 94c0 19.1 3.6 38.2 15.2 54 17.1 23.3 42.4 36.9 71.5 36.9 28 .1 55.9 0 83.9 0s56 .4 84 0h1.5c15.7 0 30.7-13.8 30-30-.9-16.4-13.3-30.1-30.2-30.1z"/></g></g><g id="XMLID_44_"><g id="XMLID_29_"><path id="XMLID_33_" d="m649.2 512c0 7.4-.5 14.9-1.5 22.2.4-2.7.7-5.3 1.1-8-2 14.8-5.9 29.1-11.7 42.9 1-2.4 2-4.8 3-7.2-4.2 9.7-9.2 19.1-15.1 27.9-1.5 2.2-3 4.3-4.5 6.4-1.4 1.8-4.8 5.5 1.5-1.9-.8 1-1.6 2.1-2.5 3.1-3.3 4-6.9 7.9-10.6 11.6s-7.6 7.2-11.6 10.6c-.7.6-2.3 2.4-3.1 2.5 1.2-.1 6.6-5 1.9-1.5-2.1 1.6-4.3 3.1-6.4 4.5-8.8 5.9-18.1 10.9-27.9 15.1 2.4-1 4.8-2 7.2-3-13.7 5.7-28.1 9.7-42.9 11.7 2.7-.4 5.3-.7 8-1.1-14.8 1.9-29.7 1.9-44.5 0 2.7.4 5.3.7 8 1.1-14.8-2-29.1-5.9-42.9-11.7l7.2 3c-9.7-4.2-19.1-9.2-27.9-15.1-2.2-1.5-4.3-3-6.4-4.5-1.8-1.4-5.5-4.8 1.9 1.5-1-.8-2.1-1.6-3.1-2.5-4-3.3-7.9-6.9-11.6-10.6s-7.2-7.6-10.6-11.6c-.6-.7-2.4-2.3-2.5-3.1.1 1.2 5 6.6 1.5 1.9-1.6-2.1-3.1-4.3-4.5-6.4-5.9-8.8-10.9-18.1-15.1-27.9 1 2.4 2 4.8 3 7.2-5.7-13.7-9.7-28.1-11.7-42.9.4 2.7.7 5.3 1.1 8-1.9-14.8-1.9-29.7 0-44.5-.4 2.7-.7 5.3-1.1 8 2-14.8 5.9-29.1 11.7-42.9-1 2.4-2 4.8-3 7.2 4.2-9.7 9.2-19.1 15.1-27.9 1.5-2.2 3-4.3 4.5-6.4 1.4-1.8 4.8-5.5-1.5 1.9.8-1 1.6-2.1 2.5-3.1 3.3-4 6.9-7.9 10.6-11.6s7.6-7.2 11.6-10.6c.7-.6 2.3-2.4 3.1-2.5-1.2.1-6.6 5-1.9 1.5 2.1-1.6 4.3-3.1 6.4-4.5 8.8-5.9 18.1-10.9 27.9-15.1-2.4 1-4.8 2-7.2 3 13.7-5.7 28.1-9.7 42.9-11.7-2.7.4-5.3.7-8 1.1 14.8-1.9 29.7-1.9 44.5 0-2.7-.4-5.3-.7-8-1.1 14.8 2 29.1 5.9 42.9 11.7-2.4-1-4.8-2-7.2-3 9.7 4.2 19.1 9.2 27.9 15.1 2.2 1.5 4.3 3 6.4 4.5 1.8 1.4 5.5 4.8-1.9-1.5 1 .8 2.1 1.6 3.1 2.5 4 3.3 7.9 6.9 11.6 10.6s7.2 7.6 10.6 11.6c.6.7 2.4 2.3 2.5 3.1-.1-1.2-5-6.6-1.5-1.9 1.6 2.1 3.1 4.3 4.5 6.4 5.9 8.8 10.9 18.1 15.1 27.9-1-2.4-2-4.8-3-7.2 5.7 13.7 9.7 28.1 11.7 42.9-.4-2.7-.7-5.3-1.1-8 1 7.4 1.5 14.9 1.5 22.3.1 15.7 13.8 30.7 30 30s30.1-13.2 30-30c-.2-39.7-12.1-80-35.3-112.4-24.3-34-57.1-59.1-96.3-73.5-75.1-27.6-165.3-3.2-216.1 58.6-27 32.8-42.9 71.6-46.2 114-3.1 39.6 7 80.8 27.5 114.7 19.9 33 50 61 85.3 77 39.5 17.8 82.3 23.1 124.9 14.5 77-15.5 141.2-81.4 153.2-159.3 1.7-11.2 3-22.3 3-33.6.1-15.7-13.8-30.7-30-30-16.3.7-29.9 13.2-30 30z"/></g></g><g id="XMLID_28_"><g id="XMLID_21_"><path id="XMLID_25_" d="m701.8 126.3h59.4 93c8.4 0 17-.5 25.4.4-2.7-.4-5.3-.7-8-1.1 4.9.7 9.6 1.9 14.2 3.8-2.4-1-4.8-2-7.2-3 3.2 1.4 6.3 3 9.3 4.9 6.1 4-4.5-4.1-.9-.8 1.1 1 2.3 2 3.4 3.1s2.1 2.2 3.1 3.4c3.3 3.6-4.8-6.9-.8-.9 1.9 2.9 3.6 6 4.9 9.3-1-2.4-2-4.8-3-7.2 1.9 4.6 3.1 9.3 3.8 14.2-.4-2.7-.7-5.3-1.1-8 .8 7 .4 14.3.4 21.3v40.2 94.4 21.8c0 15.7 13.8 30.7 30 30 16.3-.7 30-13.2 30-30 0-23.7 0-47.4 0-71 0-31.3 0-62.7 0-94 0-19.1-3.6-38.2-15.2-54-17-23.1-42.3-36.7-71.5-36.8-28-.1-55.9 0-83.9 0s-56-.4-84 0c-.5 0-1 0-1.5 0-15.7 0-30.7 13.8-30 30 .9 16.3 13.3 30 30.2 30z"/></g></g><g id="XMLID_26_"><g id="XMLID_15_"><path id="XMLID_19_" d="m897.7 701.8v59.4 93c0 8.4.5 17-.4 25.4.4-2.7.7-5.3 1.1-8-.7 4.9-1.9 9.6-3.8 14.2 1-2.4 2-4.8 3-7.2-1.4 3.2-3 6.3-4.9 9.3-4 6.1 4.1-4.5.8-.9-1 1.1-2 2.3-3.1 3.4s-2.2 2.1-3.4 3.1c-3.6 3.3 6.9-4.8.9-.8-2.9 1.9-6 3.6-9.3 4.9l7.2-3c-4.6 1.9-9.3 3.1-14.2 3.8 2.7-.4 5.3-.7 8-1.1-7 .8-14.3.4-21.3.4-13.4 0-26.8 0-40.2 0-31.5 0-62.9 0-94.4 0-7.3 0-14.6 0-21.8 0-15.7 0-30.7 13.8-30 30 .7 16.3 13.2 30 30 30h71 94c19.1 0 38.2-3.6 54-15.2 23.3-17.1 36.9-42.4 36.9-71.5.1-28 0-55.9 0-83.9s.4-56 0-84c0-.5 0-1 0-1.5 0-15.7-13.8-30.7-30-30-16.4.9-30.1 13.3-30.1 30.2z"/></g></g></g></svg>