<svg id="Layer_1" enable-background="new 0 0 24 24" viewBox="0 0 24 24" xmlns="http://www.w3.org/2000/svg"><path d="m12 8c-2.2 0-4 1.8-4 4s1.8 4 4 4 4-1.8 4-4-1.8-4-4-4zm-9 1c.6 0 1-.4 1-1v-3c0-.6.4-1 1-1h3c.6 0 1-.4 1-1s-.4-1-1-1h-3c-1.7 0-3 1.3-3 3v3c0 .6.4 1 1 1zm5 11h-3c-.6 0-1-.4-1-1v-3c0-.6-.4-1-1-1s-1 .4-1 1v3c0 1.7 1.3 3 3 3h3c.6 0 1-.4 1-1s-.4-1-1-1zm13-5c-.6 0-1 .4-1 1v3c0 .6-.4 1-1 1h-3c-.6 0-1 .4-1 1s.4 1 1 1h3c1.7 0 3-1.3 3-3v-3c0-.6-.4-1-1-1zm-2-13h-3c-.6 0-1 .4-1 1s.4 1 1 1h3c.6 0 1 .4 1 1v3c0 .6.4 1 1 1s1-.4 1-1v-3c0-1.7-1.3-3-3-3z" fill="rgb(0,0,0)"/></svg>