<svg id="Layer_1" enable-background="new 0 0 24 24" viewBox="0 0 24 24" xmlns="http://www.w3.org/2000/svg"><g><path d="m5 12c1.1 0 2-.9 2-2 0-.1-.02-.2-.03-.3l3.46-1.48c.36.47.93.78 1.57.78 1.1 0 2-.9 2-2 0-.1-.02-.2-.03-.3l3.46-1.48c.36.47.93.78 1.57.78 1.1 0 2-.9 2-2s-.9-2-2-2-2 .9-2 2c0 .1.02.2.03.3l-3.46 1.48c-.36-.47-.93-.78-1.57-.78-1.1 0-2 .9-2 2 0 .1.02.2.03.3l-3.45 1.48c-.37-.47-.94-.78-1.58-.78-1.1 0-2 .9-2 2s.9 2 2 2zm14-9c.55 0 1 .45 1 1s-.45 1-1 1-1-.45-1-1 .45-1 1-1zm-7 3c.55 0 1 .45 1 1s-.45 1-1 1-1-.45-1-1 .45-1 1-1zm-7 3c.55 0 1 .45 1 1s-.45 1-1 1-1-.45-1-1 .45-1 1-1z"/><path d="m21.5 22c.28 0 .5-.22.5-.5s-.22-.5-.5-.5h-.5v-11c0-1.1-.9-2-2-2s-2 .9-2 2v11h-3v-8c0-1.1-.9-2-2-2s-2 .9-2 2v8h-3v-5c0-1.1-.9-2-2-2s-2 .9-2 2v5h-.5c-.28 0-.5.22-.5.5s.22.5.5.5zm-17.5-1v-5c0-.55.45-1 1-1s1 .45 1 1v5zm7 0v-8c0-.55.45-1 1-1s1 .45 1 1v8zm7 0v-11c0-.55.45-1 1-1s1 .45 1 1v11z"/></g></svg>