<svg id="Layer_1" height="512" viewBox="0 0 512 512" width="512" xmlns="http://www.w3.org/2000/svg"><path d="m481 121.82h-247.948l-15.79-51.184c-.97-3.145-3.876-5.289-7.167-5.289h-179.095c-4.142 0-7.5 3.357-7.5 7.5v366.305c0 4.143 3.358 7.5 7.5 7.5h450c4.142 0 7.5-3.357 7.5-7.5v-309.832c0-4.142-3.358-7.5-7.5-7.5zm-276.439-41.472 15.789 51.184c.97 3.145 3.876 5.289 7.167 5.289h245.983v33.719h-435v-90.192zm268.939 351.304h-435v-246.113h435zm-369.041-170.796c0-4.143 3.358-7.5 7.5-7.5h288.082c4.142 0 7.5 3.357 7.5 7.5s-3.358 7.5-7.5 7.5h-288.082c-4.142 0-7.5-3.357-7.5-7.5zm0 47.74c0-4.143 3.358-7.5 7.5-7.5h288.082c4.142 0 7.5 3.357 7.5 7.5s-3.358 7.5-7.5 7.5h-288.082c-4.142 0-7.5-3.358-7.5-7.5zm0 47.739c0-4.143 3.358-7.5 7.5-7.5h288.082c4.142 0 7.5 3.357 7.5 7.5s-3.358 7.5-7.5 7.5h-288.082c-4.142 0-7.5-3.357-7.5-7.5z"/></svg>