<?xml version="1.0" encoding="UTF-8"?>
<svg id="Layer_1" data-name="Layer 1" xmlns="http://www.w3.org/2000/svg" viewBox="0 0 235.49 44.19">
  <defs>
    <style>
      .cls-1 {
        fill: none;
        stroke: #1a1a1a;
        strokeLinecap: round;
        strokeLinejoin: round;
        strokeWidth: 4px;
      }

      .cls-2 {
        fill: #1a1a1a;
      }
    </style>
  </defs>
  <g>
    <path class="cls-1" d="M21.06,41.95c-11.64,0-18.06-9.83-18.06-18.97C3,11.57,12.25,2.32,23.66,2.32s20.66,9.25,20.66,20.66c0,8.42-5.04,15.66-12.26,18.88l11.16.09"/>
    <path class="cls-1" d="M27.14,10.95c-6.86,0-12.43,5.56-12.43,12.43,0,5.49,4.45,9.94,9.94,9.94,4.39,0,7.95-3.56,7.95-7.95,0-3.51-2.85-6.36-6.36-6.36"/>
  </g>
  <g>
    <path class="cls-2" d="M60.58,31.02c0-1.15.94-2.09,2.09-2.09.97,0,1.51.54,1.84,1.19.5,1.19,1.55,2.81,3.96,2.81,2.2,0,3.74-1.69,3.74-3.6,0-2.3-1.98-3.13-3.85-3.71l-1.84-.54c-2.48-.79-5.72-2.41-5.72-7.13,0-4,3.31-6.98,7.67-6.98,4.57,0,7.52,3.2,7.52,5.58,0,1.15-.94,2.09-2.09,2.09-.97,0-1.48-.54-1.76-1.19-.5-1.12-1.48-2.56-3.67-2.56-2.02,0-3.42,1.55-3.42,3.31,0,2.2,2.05,3.02,3.56,3.46l1.58.5c2.66.83,6.26,2.27,6.26,7.45,0,4.07-3.49,7.27-7.99,7.27s-7.88-3.38-7.88-5.87Z"/>
    <path class="cls-2" d="M77.97,20c0-1.04.83-1.84,1.84-1.84h1.3v-2.7c0-1.12.86-1.98,1.98-1.98s1.98.86,1.98,1.98v2.7h4.21c1.01,0,1.84.79,1.84,1.84s-.83,1.84-1.84,1.84h-4.21v6.52c0,3.17,1.76,4.79,4.21,4.79,1.01,0,1.84.83,1.84,1.84s-.83,1.87-1.84,1.87c-4.64,0-8.17-3.28-8.17-8.5v-6.52h-1.3c-1.01,0-1.84-.83-1.84-1.84Z"/>
    <path class="cls-2" d="M93.13,27.34c0-5.33,4.07-9.54,9.54-9.54s9.54,4.21,9.54,9.54-4.03,9.54-9.54,9.54-9.54-4.21-9.54-9.54ZM108.21,27.34c0-3.24-2.38-5.87-5.54-5.87s-5.54,2.63-5.54,5.87,2.38,5.87,5.54,5.87,5.54-2.66,5.54-5.87Z"/>
    <path class="cls-2" d="M115.3,27.34c0-5.33,4.07-9.54,9.54-9.54,3.02,0,5.54,1.3,6.91,2.92.36.43.58.94.58,1.37,0,1.08-.83,1.84-1.94,1.84-.79,0-1.19-.4-1.69-.83-.9-.9-2.12-1.62-3.85-1.62-3.1,0-5.54,2.59-5.54,5.87s2.45,5.87,5.54,5.87c1.66,0,2.95-.72,3.82-1.62.5-.43.94-.9,1.73-.9,1.12,0,1.94.79,1.94,1.91,0,.4-.22.9-.58,1.3-1.37,1.66-3.85,2.99-6.91,2.99-5.47,0-9.54-4.21-9.54-9.54Z"/>
    <path class="cls-2" d="M136.08,12.98c0-1.12.86-1.98,1.98-1.98s1.98.86,1.98,1.98v21.85c0,1.12-.86,2.02-1.98,2.02s-1.98-.9-1.98-2.02V12.98ZM141.47,28.71c-.29-.4-.54-.9-.54-1.48,0-.43.22-1.01.54-1.37l6.19-7.38c.4-.43.79-.65,1.37-.65,1.04,0,1.87.76,1.87,1.8,0,.43-.11.83-.43,1.19l-5.22,6.23,5.51,6.52c.29.36.47.86.47,1.29,0,1.12-.97,1.98-2.02,1.98-.54,0-1.12-.25-1.48-.72l-6.26-7.42Z"/>
  </g>
  <g>
    <path class="cls-2" d="M159.31,13.41c0-1.15.97-2.09,2.12-2.09h6.7c7.7,0,12.92,5.58,12.92,12.6s-5.22,12.6-12.96,12.6h-6.66c-1.15,0-2.12-.97-2.12-2.12V13.41ZM168.13,32.56c5.26,0,8.57-3.81,8.57-8.64s-3.31-8.67-8.57-8.67h-4.57v17.31h4.57Z"/>
    <path class="cls-2" d="M184.91,13.41c0-1.15.97-2.09,2.12-2.09h9.72c1.08,0,1.94.86,1.94,1.94s-.86,1.98-1.94,1.98h-7.59v6.7h7.59c1.08,0,1.94.86,1.94,1.98s-.86,1.94-1.94,1.94h-7.59v6.69h7.59c1.08,0,1.94.86,1.94,1.98s-.86,1.98-1.94,1.98h-9.72c-1.15,0-2.12-.97-2.12-2.12V13.41Z"/>
    <path class="cls-2" d="M202.55,13.13c0-1.19.97-2.12,2.12-2.12s2.12.94,2.12,2.12v16.2l14.76-17.6c.36-.47.97-.72,1.51-.72,1.12,0,1.98.86,1.98,1.98,0,.4-.07.83-.47,1.26l-18.21,21.74c-.5.65-1.12.86-1.69.86-1.15,0-2.12-.97-2.12-2.12V13.13Z"/>
  </g>
</svg>